<?xml version="1.0" encoding="UTF-8"?>
<svg id="Layer_1" data-name="Layer 1" xmlns="http://www.w3.org/2000/svg" viewBox="0 0 31.88 31.88">
  <defs>
    <style>
      .cls-1 {
        fill: #bdddf4;
      }

      .cls-2 {
        fill: #3374b9;
      }

      .cls-3 {
        fill: #569fd6;
      }

      .cls-4 {
        fill: #94c7eb;
      }
    </style>
  </defs>
  <path class="cls-2" d="M31.54,7.95c-.32-.4-.72-.71-1.1-1-.64-.48-1.32-.94-2.03-1.27-.61-.28-1.23-.47-1.86-.6-.52-.1-1.05-.16-1.59-.2-.25-.02-.51-.02-.76-.03h-.99s-4.08,0-4.08,0c.02.06.05.15.07.21.03.07.06.15.09.22.63,1.62,1.15,3.39,1.54,5.27h3.73c.66,0,1.32,0,1.98-.03.03,0,.06,0,.09,0,.34-.01.68-.03,1.02-.05.54-.04,1.09-.1,1.62-.2,1-.18,1.87-.47,2.47-1.31.27-.37.03-.71-.22-1.02Z"/>
  <path class="cls-3" d="M20.9,10.56c-.41-2-.96-3.87-1.64-5.58-.02-.04-.03-.09-.05-.13l-5.75.03h0s-8.09.04-8.09.04h0s0,0,0,0h0s-3.49,3.04-3.49,3.04c.1.42.23.83.48,1.18.47.68,1.44,1.12,2.24,1.31.24.05.47.09.71.1.03,0,.05,0,.08,0h0s9.79,0,9.79,0h0s5.74,0,5.74,0Z"/>
  <path class="cls-1" d="M5.3,4.82L2.3,0S.9,0,.28,0C.11,0,0,0,0,0c.2.82.39,1.65.59,2.47.36,1.52.72,3.04,1.08,4.56.07.3.13.62.2.93l3.49-3.05-.06-.1Z"/>
  <path class="cls-4" d="M15.14,10.66c.66,3.41.86,6.69.62,9.64,0,.08-.01.16-.02.23-.32,3.67-1.31,6.82-2.87,9.08-.6.87-1.29,1.61-2.05,2.19.89.11,1.78.08,2.64-.11.09-.02.19-.04.28-.07,1.69-.45,3.13-1.49,4.29-2.99.02-.03.04-.05.06-.08.56-.73,1.05-1.58,1.47-2.51,0-.01.01-.02.02-.03.88-1.96,1.45-4.33,1.68-6.96.23-2.62.12-5.5-.36-8.5h-5.78s.01.06.02.1Z"/>
</svg>